<?xml version="1.0" standalone="no"?>
<!DOCTYPE svg PUBLIC "-//W3C//DTD SVG 20010904//EN"
 "http://www.w3.org/TR/2001/REC-SVG-20010904/DTD/svg10.dtd">
<svg version="1.0" xmlns="http://www.w3.org/2000/svg"
 width="260.000000pt" height="260.000000pt" viewBox="0 0 260.000000 260.000000"
 preserveAspectRatio="xMidYMid meet">
<metadata>
Created by potrace 1.11, written by Peter Selinger 2001-2013
</metadata>
<g transform="translate(0.000000,260.000000) scale(0.100000,-0.100000)"
fill="#000000" stroke="none">
<path d="M1192 1545 c-19 -8 -47 -29 -63 -46 l-29 -31 0 41 c0 23 -4 41 -10
41 -6 0 -10 -92 -10 -255 0 -163 4 -255 10 -255 6 0 10 47 10 121 l0 120 33
-34 c113 -120 309 -26 293 142 -6 69 -41 122 -98 150 -51 24 -90 26 -136 6z
m136 -35 c46 -28 72 -76 72 -133 0 -93 -58 -157 -142 -157 -81 0 -135 46 -153
127 -25 122 118 227 223 163z"/>
<path d="M1582 1539 c-90 -45 -127 -159 -80 -249 55 -106 189 -130 270 -49 16
16 31 29 34 29 2 0 4 -16 4 -35 0 -19 5 -35 10 -35 6 0 10 65 10 175 0 110 -4
175 -10 175 -5 0 -10 -19 -10 -42 l0 -42 -30 32 c-57 63 -126 77 -198 41z
m148 -32 c48 -32 74 -81 73 -138 -1 -91 -61 -149 -152 -149 -46 0 -56 4 -93
39 -39 36 -42 42 -45 102 -3 51 0 70 16 97 45 71 137 93 201 49z"/>
<path d="M2010 1549 c-14 -6 -35 -20 -47 -31 l-23 -21 0 26 c0 15 -4 27 -10
27 -6 0 -10 -65 -10 -175 0 -110 4 -175 10 -175 6 0 10 45 10 115 0 161 27
215 107 215 23 0 33 5 33 15 0 17 -32 19 -70 4z"/>
<path d="M264 1458 c102 -280 89 -253 126 -253 l33 0 62 170 c57 156 60 170
43 173 -11 2 -25 1 -32 -1 -6 -3 -31 -61 -56 -131 -24 -69 -46 -126 -50 -126
-3 0 -26 57 -51 128 -44 125 -45 127 -77 130 l-32 3 34 -93z"/>
<path d="M600 1428 c0 -135 11 -174 61 -211 39 -28 108 -33 154 -11 65 30 75
60 75 212 l0 132 -25 0 -25 0 0 -109 c0 -160 -16 -191 -99 -191 -31 0 -44 6
-60 26 -19 24 -21 40 -21 150 l0 124 -30 0 -30 0 0 -122z"/>
<path d="M2130 1230 c0 -20 5 -30 15 -30 10 0 15 10 15 30 0 20 -5 30 -15 30
-10 0 -15 -10 -15 -30z"/>
<path d="M2240 1230 c0 -16 5 -30 10 -30 6 0 10 14 10 30 0 17 -4 30 -10 30
-5 0 -10 -13 -10 -30z"/>
<path d="M2340 1230 c0 -20 5 -30 15 -30 10 0 15 10 15 30 0 20 -5 30 -15 30
-10 0 -15 -10 -15 -30z"/>
</g>
</svg>
