<?xml version="1.0" encoding="utf-8"?>
<!-- Generator: Adobe Illustrator 21.0.0, SVG Export Plug-In . SVG Version: 6.00 Build 0)  -->
<svg version="1.1" id="Calque_1" xmlns="http://www.w3.org/2000/svg" xmlns:xlink="http://www.w3.org/1999/xlink" x="0px" y="0px"
	 viewBox="0 0 370 370" style="enable-background:new 0 0 370 370;" xml:space="preserve">
<style type="text/css">
	.st0{fill:#F0C69C;}
</style>
<g>
	<path class="st0" d="M178.4,151.9c-11.8,0-21.4,10.2-21.4,22.7c0,12.3,9.6,22.4,21.4,22.4c11.8,0,21.4-10.1,21.4-22.4
		C199.8,162.1,190.3,151.9,178.4,151.9z"/>
	<path class="st0" d="M235.6,151.9c-11.8,0-21.4,10.2-21.4,22.7c0,12.3,9.6,22.4,21.4,22.4c11.8,0,21.4-10.1,21.4-22.4
		C257,162.1,247.3,151.9,235.6,151.9z"/>
	<path class="st0" d="M0,0v370h370V0H0z M59.9,199.5h-8.8l-18.2-50h8.7l13.8,39.1h0.1l13.8-39.1h8.7L59.9,199.5z M127.3,179.8
		c0,12.6-9.1,20.9-20.9,20.9c-11.8,0-20.9-8.3-20.9-20.9v-30.3h8.2v30.3c0,7.5,5,12.9,12.7,12.9c7.7,0,12.6-5.4,12.6-12.9v-30.3h8.3
		V179.8z M178.4,200.7c-9.2,0-17.2-5.3-21.4-13.2v34.3h-3.6v-72.3h3.6v12.1c4.2-8,12.1-13.4,21.4-13.4c13.8,0,25.1,11.9,25.1,26.4
		C203.5,189,192.2,200.7,178.4,200.7z M260.5,199.5H257v-12.1c-4.1,7.9-12.1,13.2-21.4,13.2c-13.8,0-25-11.7-25-26
		c0-14.6,11.2-26.4,25-26.4c9.3,0,17.3,5.4,21.4,13.4v-12.1h3.6V199.5z M296.6,151.7c-6.6-0.6-11.7,1.3-14.8,4.3
		c-3.6,3.2-5.5,8.1-5.5,13.3v30.2h-3.7v-50h3.7v8.4c0.9-1.7,1.9-3.2,3.3-4.5c4.4-3.9,10.2-5.7,17-5V151.7z M306.8,199.5h-3.6v-9h3.6
		V199.5z M321.9,199.5h-3.6v-9h3.6V199.5z M337.1,199.5h-3.6v-9h3.6V199.5z"/>
</g>
</svg>
