<svg version="1.1" id="Calque_1" xmlns="http://www.w3.org/2000/svg" xmlns:xlink="http://www.w3.org/1999/xlink" x="0px" y="0px" viewBox="0 0 58 58" style="enable-background:new 0 0 58 58;" xml:space="preserve">

	<path fill="#f0c69d" class="st0" d="M24.2,39.6c9.8,0,15.2-8.1,15.2-15.2c0-0.2,0-0.5,0-0.7c1-0.8,1.9-1.7,2.7-2.8c-1,0.4-2,0.7-3.1,0.8
	c1.1-0.7,1.9-1.7,2.3-3c-1,0.6-2.2,1.1-3.4,1.3c-2-2.1-5.4-2.3-7.5-0.2c-1.4,1.3-2,3.2-1.5,5.1c-4.3-0.2-8.3-2.2-11-5.6
	c-1.4,2.4-0.7,5.6,1.7,7.1c-0.8,0-1.7-0.3-2.4-0.7c0,0,0,0,0,0.1c0,2.5,1.8,4.7,4.3,5.2c-0.8,0.2-1.6,0.2-2.4,0.1
	c0.7,2.2,2.7,3.7,5,3.7c-1.9,1.5-4.2,2.3-6.6,2.3c-0.4,0-0.8,0-1.3-0.1C18.4,38.7,21.3,39.6,24.2,39.6"/>
</svg>
